<?xml version="1.0" standalone="no"?>
<!DOCTYPE svg PUBLIC "-//W3C//DTD SVG 20010904//EN"
 "http://www.w3.org/TR/2001/REC-SVG-20010904/DTD/svg10.dtd">
<svg version="1.0" xmlns="http://www.w3.org/2000/svg"
 width="256.000000pt" height="256.000000pt" viewBox="0 0 256.000000 256.000000"
 preserveAspectRatio="xMidYMid meet">
<metadata>
Created by potrace 1.16, written by Peter Selinger 2001-2019
</metadata>
<g transform="translate(0.000000,256.000000) scale(0.100000,-0.100000)"
fill="#000000" stroke="none">
<path d="M1232 2463 c-21 -32 -49 -75 -61 -96 l-23 -38 131 3 131 2 -17 26
c-73 112 -107 160 -114 160 -5 0 -26 -26 -47 -57z"/>
<path d="M1032 2145 c-40 -58 -72 -109 -72 -115 0 -7 107 -10 310 -10 l310 0
0 25 c0 23 3 24 65 27 l64 3 -16 33 c-21 44 -88 82 -142 82 -35 0 -48 6 -71
30 l-28 30 -175 0 -174 0 -71 -105z"/>
<path d="M118 1934 c-20 -6 -33 -38 -22 -56 22 -38 350 -438 359 -438 5 0 26
24 45 52 19 29 95 138 168 242 72 105 132 193 132 196 0 6 -659 10 -682 4z"/>
<path d="M897 1925 c-4 -5 -192 -287 -418 -625 -275 -413 -409 -624 -409 -641
0 -54 20 -59 214 -59 l177 0 307 465 307 464 179 3 179 3 123 195 c68 107 124
198 124 202 0 11 -773 4 -783 -7z"/>
<path d="M1774 1925 c12 -33 312 -484 321 -484 13 0 335 408 346 437 6 17 3
28 -11 42 -19 19 -35 20 -341 20 -281 0 -320 -2 -315 -15z"/>
<path d="M1718 1798 c-8 -7 -53 -74 -98 -148 -45 -74 -94 -154 -109 -177 l-26
-43 -175 0 -176 0 -272 -404 c-150 -223 -272 -410 -272 -415 0 -8 204 -11 661
-11 523 0 660 3 657 13 -2 6 -23 42 -48 79 l-45 67 -225 3 c-224 3 -225 3
-228 25 -2 16 18 47 69 108 l73 85 180 0 181 -1 129 -189 129 -190 159 0 c89
0 168 4 178 10 30 16 42 45 30 75 -5 14 -131 209 -279 433 -425 641 -455 686
-466 689 -6 2 -18 -2 -27 -9z"/>
<path d="M1113 513 c-90 -2 -163 -8 -163 -13 0 -5 64 -111 143 -237 158 -252
176 -269 221 -223 26 26 281 459 274 465 -6 7 -311 12 -475 8z"/>
</g>
</svg>
